<mxfile host="app.diagrams.net" modified="2022-03-22T02:25:22.249Z" agent="5.0 (Windows)" etag="zjDliKvV1jh4oiK5CERJ" version="17.1.3" type="github">
  <diagram id="HK1vYaXFGeP86o5CCqgt" name="第 1 页">
    <mxGraphModel dx="652" dy="327" grid="1" gridSize="10" guides="1" tooltips="1" connect="1" arrows="1" fold="1" page="1" pageScale="1" pageWidth="827" pageHeight="1169" math="0" shadow="0">
      <root>
        <mxCell id="0" />
        <mxCell id="1" parent="0" />
        <mxCell id="KmF9daMEDYKna3JM57QB-1" value="" style="ellipse;whiteSpace=wrap;html=1;fillColor=#f8cecc;strokeColor=#b85450;" parent="1" vertex="1">
          <mxGeometry x="57.5" y="97.5" width="125" height="70" as="geometry" />
        </mxCell>
        <mxCell id="KmF9daMEDYKna3JM57QB-2" value="" style="ellipse;whiteSpace=wrap;html=1;fillColor=#f8cecc;strokeColor=#b85450;" parent="1" vertex="1">
          <mxGeometry x="290" y="95" width="160" height="75" as="geometry" />
        </mxCell>
        <mxCell id="KmF9daMEDYKna3JM57QB-3" value="" style="endArrow=classic;html=1;rounded=0;entryX=0;entryY=0.5;entryDx=0;entryDy=0;exitX=1;exitY=0.5;exitDx=0;exitDy=0;" parent="1" source="KmF9daMEDYKna3JM57QB-1" edge="1" target="KmF9daMEDYKna3JM57QB-2">
          <mxGeometry width="50" height="50" relative="1" as="geometry">
            <mxPoint x="220" y="133" as="sourcePoint" />
            <mxPoint x="280" y="135" as="targetPoint" />
          </mxGeometry>
        </mxCell>
        <mxCell id="KmF9daMEDYKna3JM57QB-5" value="" style="endArrow=classic;html=1;rounded=0;" parent="1" edge="1">
          <mxGeometry width="50" height="50" relative="1" as="geometry">
            <mxPoint x="450" y="134.57999999999998" as="sourcePoint" />
            <mxPoint x="520" y="134.57999999999998" as="targetPoint" />
          </mxGeometry>
        </mxCell>
        <mxCell id="KmF9daMEDYKna3JM57QB-6" value="" style="ellipse;whiteSpace=wrap;html=1;fillColor=#f8cecc;strokeColor=#b85450;" parent="1" vertex="1">
          <mxGeometry x="520" y="100" width="150" height="70" as="geometry" />
        </mxCell>
        <mxCell id="KmF9daMEDYKna3JM57QB-7" value="" style="ellipse;whiteSpace=wrap;html=1;fillColor=#f8cecc;strokeColor=#b85450;" parent="1" vertex="1">
          <mxGeometry x="520" y="292.5" width="150" height="70" as="geometry" />
        </mxCell>
        <mxCell id="l0r4mPaguNBQTGx_N70y-1" value="" style="endArrow=classic;html=1;rounded=0;entryX=0.5;entryY=0;entryDx=0;entryDy=0;exitX=0.5;exitY=1;exitDx=0;exitDy=0;" edge="1" parent="1" source="KmF9daMEDYKna3JM57QB-6" target="KmF9daMEDYKna3JM57QB-7">
          <mxGeometry width="50" height="50" relative="1" as="geometry">
            <mxPoint x="590" y="190" as="sourcePoint" />
            <mxPoint x="545" y="290" as="targetPoint" />
          </mxGeometry>
        </mxCell>
        <mxCell id="l0r4mPaguNBQTGx_N70y-2" value="" style="ellipse;whiteSpace=wrap;html=1;fillColor=#f8cecc;strokeColor=#b85450;" vertex="1" parent="1">
          <mxGeometry x="290" y="290" width="160" height="75" as="geometry" />
        </mxCell>
        <mxCell id="l0r4mPaguNBQTGx_N70y-3" value="" style="endArrow=classic;html=1;rounded=0;exitX=0;exitY=0.5;exitDx=0;exitDy=0;entryX=1;entryY=0.5;entryDx=0;entryDy=0;" edge="1" parent="1" source="KmF9daMEDYKna3JM57QB-7" target="l0r4mPaguNBQTGx_N70y-2">
          <mxGeometry width="50" height="50" relative="1" as="geometry">
            <mxPoint x="487.5" y="329.58" as="sourcePoint" />
            <mxPoint x="460" y="330" as="targetPoint" />
          </mxGeometry>
        </mxCell>
        <mxCell id="l0r4mPaguNBQTGx_N70y-5" value="" style="endArrow=none;html=1;rounded=0;" edge="1" parent="1">
          <mxGeometry width="50" height="50" relative="1" as="geometry">
            <mxPoint x="280" y="330" as="sourcePoint" />
            <mxPoint x="150" y="330" as="targetPoint" />
          </mxGeometry>
        </mxCell>
        <mxCell id="l0r4mPaguNBQTGx_N70y-6" value="" style="endArrow=classic;html=1;rounded=0;entryX=0.5;entryY=1;entryDx=0;entryDy=0;" edge="1" parent="1" target="KmF9daMEDYKna3JM57QB-1">
          <mxGeometry width="50" height="50" relative="1" as="geometry">
            <mxPoint x="153" y="330" as="sourcePoint" />
            <mxPoint x="180" y="250" as="targetPoint" />
          </mxGeometry>
        </mxCell>
        <mxCell id="l0r4mPaguNBQTGx_N70y-7" value="idle" style="text;html=1;strokeColor=none;fillColor=none;align=center;verticalAlign=middle;whiteSpace=wrap;rounded=0;fontSize=20;" vertex="1" parent="1">
          <mxGeometry x="90" y="117.5" width="60" height="30" as="geometry" />
        </mxCell>
        <mxCell id="l0r4mPaguNBQTGx_N70y-8" value="send_high_pre" style="text;html=1;strokeColor=none;fillColor=none;align=center;verticalAlign=middle;whiteSpace=wrap;rounded=0;fontSize=20;" vertex="1" parent="1">
          <mxGeometry x="340" y="117.5" width="60" height="30" as="geometry" />
        </mxCell>
        <mxCell id="l0r4mPaguNBQTGx_N70y-9" value="send_low_pre" style="text;html=1;strokeColor=none;fillColor=none;align=center;verticalAlign=middle;whiteSpace=wrap;rounded=0;fontSize=20;" vertex="1" parent="1">
          <mxGeometry x="560" y="312.5" width="60" height="30" as="geometry" />
        </mxCell>
        <mxCell id="l0r4mPaguNBQTGx_N70y-10" value="send_high" style="text;html=1;strokeColor=none;fillColor=none;align=center;verticalAlign=middle;whiteSpace=wrap;rounded=0;fontSize=20;" vertex="1" parent="1">
          <mxGeometry x="560" y="117.5" width="60" height="30" as="geometry" />
        </mxCell>
        <mxCell id="l0r4mPaguNBQTGx_N70y-11" value="send_low" style="text;html=1;strokeColor=none;fillColor=none;align=center;verticalAlign=middle;whiteSpace=wrap;rounded=0;fontSize=20;" vertex="1" parent="1">
          <mxGeometry x="340" y="312.5" width="60" height="30" as="geometry" />
        </mxCell>
        <mxCell id="l0r4mPaguNBQTGx_N70y-13" value="done==1" style="text;html=1;strokeColor=none;fillColor=none;align=center;verticalAlign=middle;whiteSpace=wrap;rounded=0;fontSize=20;" vertex="1" parent="1">
          <mxGeometry x="200" y="100" width="60" height="30" as="geometry" />
        </mxCell>
      </root>
    </mxGraphModel>
  </diagram>
</mxfile>
